<?xml version="1.0" encoding="utf-8"?>
<!-- Generator: Adobe Illustrator 19.2.1, SVG Export Plug-In . SVG Version: 6.00 Build 0)  -->
<svg version="1.1" id="Layer_1" xmlns="http://www.w3.org/2000/svg" xmlns:xlink="http://www.w3.org/1999/xlink" x="0px" y="0px"
	 viewBox="0 0 50 50" style="enable-background:new 0 0 50 50;" xml:space="preserve">
<style type="text/css">
	.st0{fill:#008CA8;}
</style>
<g>
	<path class="st0" d="M31.1,20.5c-2.9,0-5.3,2.5-7.3,4.5c2,1.9,4.1,4.5,7.1,4.5c2.6,0,4.5-2.1,4.5-4.5
		C35.5,22.4,33.7,20.5,31.1,20.5z"/>
	<path class="st0" d="M8.1,25c0,2.6,1.9,4.5,4.4,4.5c2.9,0,5.3-2.5,7.3-4.5c-2-1.9-4.1-4.5-7.1-4.5C10,20.5,8.1,22.6,8.1,25z"/>
	<path class="st0" d="M45.4,22.2L7.8,0.4C5.7-0.8,2.9,0.8,2.9,3.3v43.4c0,2.5,2.7,4.1,4.9,2.8l37.6-21.7
		C47.6,26.6,47.6,23.4,45.4,22.2z M30.9,32.6c-3.8,0-6.7-3-9.1-5.5c-2.6,2.6-5.4,5.5-9.5,5.5c-4.3,0-7.4-3.2-7.4-7.6
		c0-4.1,3.3-7.6,7.8-7.6c3.8,0,6.7,3,9.1,5.5c2.6-2.6,5.4-5.5,9.5-5.5c4.4,0,7.4,3.2,7.4,7.6C38.8,29.1,35.5,32.6,30.9,32.6z"/>
</g>
</svg>
